<svg xmlns="http://www.w3.org/2000/svg" viewBox="0 0 1200 900" role="img" aria-label="CYGNUS — visuel temporaire">
  <defs>
    <radialGradient id="bg" cx="50%" cy="42%" r="80%">
      <stop offset="0%" stop-color="#1d1d1d"/>
      <stop offset="100%" stop-color="#0a0a0a"/>
    </radialGradient>
  </defs>
  <rect width="1200" height="900" fill="url(#bg)"/>
  <line x1="0" y1="0" x2="0" y2="900" stroke="#ff6a2a" stroke-opacity="0.06" stroke-width="1"/><line x1="100" y1="0" x2="100" y2="900" stroke="#ff6a2a" stroke-opacity="0.06" stroke-width="1"/><line x1="200" y1="0" x2="200" y2="900" stroke="#ff6a2a" stroke-opacity="0.06" stroke-width="1"/><line x1="300" y1="0" x2="300" y2="900" stroke="#ff6a2a" stroke-opacity="0.06" stroke-width="1"/><line x1="400" y1="0" x2="400" y2="900" stroke="#ff6a2a" stroke-opacity="0.06" stroke-width="1"/><line x1="500" y1="0" x2="500" y2="900" stroke="#ff6a2a" stroke-opacity="0.06" stroke-width="1"/><line x1="600" y1="0" x2="600" y2="900" stroke="#ff6a2a" stroke-opacity="0.06" stroke-width="1"/><line x1="700" y1="0" x2="700" y2="900" stroke="#ff6a2a" stroke-opacity="0.06" stroke-width="1"/><line x1="800" y1="0" x2="800" y2="900" stroke="#ff6a2a" stroke-opacity="0.06" stroke-width="1"/><line x1="900" y1="0" x2="900" y2="900" stroke="#ff6a2a" stroke-opacity="0.06" stroke-width="1"/><line x1="1000" y1="0" x2="1000" y2="900" stroke="#ff6a2a" stroke-opacity="0.06" stroke-width="1"/><line x1="1100" y1="0" x2="1100" y2="900" stroke="#ff6a2a" stroke-opacity="0.06" stroke-width="1"/><line x1="1200" y1="0" x2="1200" y2="900" stroke="#ff6a2a" stroke-opacity="0.06" stroke-width="1"/><line x1="0" y1="0" x2="1200" y2="0" stroke="#ff6a2a" stroke-opacity="0.06" stroke-width="1"/><line x1="0" y1="100" x2="1200" y2="100" stroke="#ff6a2a" stroke-opacity="0.06" stroke-width="1"/><line x1="0" y1="200" x2="1200" y2="200" stroke="#ff6a2a" stroke-opacity="0.06" stroke-width="1"/><line x1="0" y1="300" x2="1200" y2="300" stroke="#ff6a2a" stroke-opacity="0.06" stroke-width="1"/><line x1="0" y1="400" x2="1200" y2="400" stroke="#ff6a2a" stroke-opacity="0.06" stroke-width="1"/><line x1="0" y1="500" x2="1200" y2="500" stroke="#ff6a2a" stroke-opacity="0.06" stroke-width="1"/><line x1="0" y1="600" x2="1200" y2="600" stroke="#ff6a2a" stroke-opacity="0.06" stroke-width="1"/><line x1="0" y1="700" x2="1200" y2="700" stroke="#ff6a2a" stroke-opacity="0.06" stroke-width="1"/><line x1="0" y1="800" x2="1200" y2="800" stroke="#ff6a2a" stroke-opacity="0.06" stroke-width="1"/><line x1="0" y1="900" x2="1200" y2="900" stroke="#ff6a2a" stroke-opacity="0.06" stroke-width="1"/>
  <line x1="831.0" y1="430.0" x2="672.8" y2="621.3" stroke="#ff6a2a" stroke-opacity="0.18" stroke-width="1"/><line x1="831.0" y1="430.0" x2="434.0" y2="478.0" stroke="#ff6a2a" stroke-opacity="0.18" stroke-width="1"/><line x1="831.0" y1="430.0" x2="501.6" y2="356.0" stroke="#ff6a2a" stroke-opacity="0.18" stroke-width="1"/><line x1="831.0" y1="430.0" x2="795.4" y2="283.0" stroke="#ff6a2a" stroke-opacity="0.18" stroke-width="1"/><line x1="846.2" y1="501.2" x2="696.3" y2="502.5" stroke="#ff6a2a" stroke-opacity="0.18" stroke-width="1"/><line x1="846.2" y1="501.2" x2="406.4" y2="575.7" stroke="#ff6a2a" stroke-opacity="0.18" stroke-width="1"/><line x1="846.2" y1="501.2" x2="357.9" y2="360.0" stroke="#ff6a2a" stroke-opacity="0.18" stroke-width="1"/><line x1="846.2" y1="501.2" x2="629.6" y2="352.2" stroke="#ff6a2a" stroke-opacity="0.18" stroke-width="1"/><line x1="696.3" y1="502.5" x2="570.2" y2="508.3" stroke="#ff6a2a" stroke-opacity="0.18" stroke-width="1"/><line x1="696.3" y1="502.5" x2="364.0" y2="430.0" stroke="#ff6a2a" stroke-opacity="0.18" stroke-width="1"/><line x1="696.3" y1="502.5" x2="527.5" y2="239.5" stroke="#ff6a2a" stroke-opacity="0.18" stroke-width="1"/><line x1="696.3" y1="502.5" x2="762.1" y2="383.2" stroke="#ff6a2a" stroke-opacity="0.18" stroke-width="1"/><line x1="672.8" y1="621.3" x2="434.0" y2="478.0" stroke="#ff6a2a" stroke-opacity="0.18" stroke-width="1"/><line x1="672.8" y1="621.3" x2="501.6" y2="356.0" stroke="#ff6a2a" stroke-opacity="0.18" stroke-width="1"/><line x1="672.8" y1="621.3" x2="795.4" y2="283.0" stroke="#ff6a2a" stroke-opacity="0.18" stroke-width="1"/><line x1="570.2" y1="508.3" x2="406.4" y2="575.7" stroke="#ff6a2a" stroke-opacity="0.18" stroke-width="1"/><line x1="570.2" y1="508.3" x2="357.9" y2="360.0" stroke="#ff6a2a" stroke-opacity="0.18" stroke-width="1"/><line x1="570.2" y1="508.3" x2="629.6" y2="352.2" stroke="#ff6a2a" stroke-opacity="0.18" stroke-width="1"/><line x1="406.4" y1="575.7" x2="364.0" y2="430.0" stroke="#ff6a2a" stroke-opacity="0.18" stroke-width="1"/><line x1="406.4" y1="575.7" x2="527.5" y2="239.5" stroke="#ff6a2a" stroke-opacity="0.18" stroke-width="1"/><line x1="406.4" y1="575.7" x2="762.1" y2="383.2" stroke="#ff6a2a" stroke-opacity="0.18" stroke-width="1"/><line x1="434.0" y1="478.0" x2="501.6" y2="356.0" stroke="#ff6a2a" stroke-opacity="0.18" stroke-width="1"/><line x1="434.0" y1="478.0" x2="795.4" y2="283.0" stroke="#ff6a2a" stroke-opacity="0.18" stroke-width="1"/><line x1="364.0" y1="430.0" x2="357.9" y2="360.0" stroke="#ff6a2a" stroke-opacity="0.18" stroke-width="1"/><line x1="364.0" y1="430.0" x2="629.6" y2="352.2" stroke="#ff6a2a" stroke-opacity="0.18" stroke-width="1"/><line x1="357.9" y1="360.0" x2="527.5" y2="239.5" stroke="#ff6a2a" stroke-opacity="0.18" stroke-width="1"/><line x1="357.9" y1="360.0" x2="762.1" y2="383.2" stroke="#ff6a2a" stroke-opacity="0.18" stroke-width="1"/><line x1="501.6" y1="356.0" x2="795.4" y2="283.0" stroke="#ff6a2a" stroke-opacity="0.18" stroke-width="1"/><line x1="527.5" y1="239.5" x2="629.6" y2="352.2" stroke="#ff6a2a" stroke-opacity="0.18" stroke-width="1"/><line x1="629.6" y1="352.2" x2="762.1" y2="383.2" stroke="#ff6a2a" stroke-opacity="0.18" stroke-width="1"/>
  
  <g transform="translate(600 450)">
    <g fill="none" stroke="#ff6a2a" stroke-width="10" stroke-linecap="round">
      <rect x="-260" y="-70" width="220" height="150" rx="58" />
      <rect x="40" y="-70" width="220" height="150" rx="58" />
      <path d="M -40 -30 C -20 -55, 20 -55, 40 -30" />
      <path d="M -260 -20 L -340 -45" />
      <path d="M 260 -20 L 340 -45" />
    </g>
    <g fill="#ff6a2a" fill-opacity="0.08">
      <rect x="-260" y="-70" width="220" height="150" rx="58" />
      <rect x="40" y="-70" width="220" height="150" rx="58" />
    </g>
  </g>
  <text x="600" y="700" text-anchor="middle" font-family="Arial, sans-serif" font-size="64" font-weight="700" letter-spacing="14" fill="#f4f1ea">CYGNUS</text>
  <text x="600" y="745" text-anchor="middle" font-family="Arial, sans-serif" font-size="20" letter-spacing="6" fill="#9c968c">NYLON PA12 — IMPRESSION 3D SLS</text>
</svg>