<svg xmlns="http://www.w3.org/2000/svg" viewBox="0 0 1600 900" role="img" aria-label="Collection HYBRIDE">
  <defs>
    <linearGradient id="bg" x1="0" y1="0" x2="1" y2="1">
      <stop offset="0%" stop-color="#161616"/>
      <stop offset="100%" stop-color="#070707"/>
    </linearGradient>
  </defs>
  <rect width="1600" height="900" fill="url(#bg)"/>
  <line x1="0" y1="0" x2="0" y2="900" stroke="#d8d8d4" stroke-opacity="0.06" stroke-width="1"/><line x1="100" y1="0" x2="100" y2="900" stroke="#d8d8d4" stroke-opacity="0.06" stroke-width="1"/><line x1="200" y1="0" x2="200" y2="900" stroke="#d8d8d4" stroke-opacity="0.06" stroke-width="1"/><line x1="300" y1="0" x2="300" y2="900" stroke="#d8d8d4" stroke-opacity="0.06" stroke-width="1"/><line x1="400" y1="0" x2="400" y2="900" stroke="#d8d8d4" stroke-opacity="0.06" stroke-width="1"/><line x1="500" y1="0" x2="500" y2="900" stroke="#d8d8d4" stroke-opacity="0.06" stroke-width="1"/><line x1="600" y1="0" x2="600" y2="900" stroke="#d8d8d4" stroke-opacity="0.06" stroke-width="1"/><line x1="700" y1="0" x2="700" y2="900" stroke="#d8d8d4" stroke-opacity="0.06" stroke-width="1"/><line x1="800" y1="0" x2="800" y2="900" stroke="#d8d8d4" stroke-opacity="0.06" stroke-width="1"/><line x1="900" y1="0" x2="900" y2="900" stroke="#d8d8d4" stroke-opacity="0.06" stroke-width="1"/><line x1="1000" y1="0" x2="1000" y2="900" stroke="#d8d8d4" stroke-opacity="0.06" stroke-width="1"/><line x1="1100" y1="0" x2="1100" y2="900" stroke="#d8d8d4" stroke-opacity="0.06" stroke-width="1"/><line x1="1200" y1="0" x2="1200" y2="900" stroke="#d8d8d4" stroke-opacity="0.06" stroke-width="1"/><line x1="0" y1="0" x2="1200" y2="0" stroke="#d8d8d4" stroke-opacity="0.06" stroke-width="1"/><line x1="0" y1="100" x2="1200" y2="100" stroke="#d8d8d4" stroke-opacity="0.06" stroke-width="1"/><line x1="0" y1="200" x2="1200" y2="200" stroke="#d8d8d4" stroke-opacity="0.06" stroke-width="1"/><line x1="0" y1="300" x2="1200" y2="300" stroke="#d8d8d4" stroke-opacity="0.06" stroke-width="1"/><line x1="0" y1="400" x2="1200" y2="400" stroke="#d8d8d4" stroke-opacity="0.06" stroke-width="1"/><line x1="0" y1="500" x2="1200" y2="500" stroke="#d8d8d4" stroke-opacity="0.06" stroke-width="1"/><line x1="0" y1="600" x2="1200" y2="600" stroke="#d8d8d4" stroke-opacity="0.06" stroke-width="1"/><line x1="0" y1="700" x2="1200" y2="700" stroke="#d8d8d4" stroke-opacity="0.06" stroke-width="1"/><line x1="0" y1="800" x2="1200" y2="800" stroke="#d8d8d4" stroke-opacity="0.06" stroke-width="1"/><line x1="0" y1="900" x2="1200" y2="900" stroke="#d8d8d4" stroke-opacity="0.06" stroke-width="1"/>
  <line x1="1444.0" y1="420.0" x2="1358.1" y2="636.3" stroke="#d8d8d4" stroke-opacity="0.18" stroke-width="1"/><line x1="1444.0" y1="420.0" x2="1032.8" y2="541.8" stroke="#d8d8d4" stroke-opacity="0.18" stroke-width="1"/><line x1="1444.0" y1="420.0" x2="949.2" y2="420.0" stroke="#d8d8d4" stroke-opacity="0.18" stroke-width="1"/><line x1="1444.0" y1="420.0" x2="950.5" y2="212.7" stroke="#d8d8d4" stroke-opacity="0.18" stroke-width="1"/><line x1="1444.0" y1="420.0" x2="1318.1" y2="245.4" stroke="#d8d8d4" stroke-opacity="0.18" stroke-width="1"/><line x1="1476.9" y1="491.4" x2="1300.6" y2="495.8" stroke="#d8d8d4" stroke-opacity="0.18" stroke-width="1"/><line x1="1476.9" y1="491.4" x2="1081.4" y2="653.6" stroke="#d8d8d4" stroke-opacity="0.18" stroke-width="1"/><line x1="1476.9" y1="491.4" x2="828.6" y2="490.2" stroke="#d8d8d4" stroke-opacity="0.18" stroke-width="1"/><line x1="1476.9" y1="491.4" x2="1020.3" y2="354.7" stroke="#d8d8d4" stroke-opacity="0.18" stroke-width="1"/><line x1="1476.9" y1="491.4" x2="1203.3" y2="238.8" stroke="#d8d8d4" stroke-opacity="0.18" stroke-width="1"/><line x1="1476.9" y1="491.4" x2="1537.6" y2="335.4" stroke="#d8d8d4" stroke-opacity="0.18" stroke-width="1"/><line x1="1300.6" y1="495.8" x2="1179.6" y2="520.7" stroke="#d8d8d4" stroke-opacity="0.18" stroke-width="1"/><line x1="1300.6" y1="495.8" x2="919.9" y2="535.8" stroke="#d8d8d4" stroke-opacity="0.18" stroke-width="1"/><line x1="1300.6" y1="495.8" x2="760.5" y2="334.9" stroke="#d8d8d4" stroke-opacity="0.18" stroke-width="1"/><line x1="1300.6" y1="495.8" x2="1110.2" y2="284.7" stroke="#d8d8d4" stroke-opacity="0.18" stroke-width="1"/><line x1="1300.6" y1="495.8" x2="1307.2" y2="340.9" stroke="#d8d8d4" stroke-opacity="0.18" stroke-width="1"/><line x1="1358.1" y1="636.3" x2="1032.8" y2="541.8" stroke="#d8d8d4" stroke-opacity="0.18" stroke-width="1"/><line x1="1358.1" y1="636.3" x2="949.2" y2="420.0" stroke="#d8d8d4" stroke-opacity="0.18" stroke-width="1"/><line x1="1358.1" y1="636.3" x2="950.5" y2="212.7" stroke="#d8d8d4" stroke-opacity="0.18" stroke-width="1"/><line x1="1358.1" y1="636.3" x2="1318.1" y2="245.4" stroke="#d8d8d4" stroke-opacity="0.18" stroke-width="1"/><line x1="1179.6" y1="520.7" x2="1081.4" y2="653.6" stroke="#d8d8d4" stroke-opacity="0.18" stroke-width="1"/><line x1="1179.6" y1="520.7" x2="828.6" y2="490.2" stroke="#d8d8d4" stroke-opacity="0.18" stroke-width="1"/><line x1="1179.6" y1="520.7" x2="1020.3" y2="354.7" stroke="#d8d8d4" stroke-opacity="0.18" stroke-width="1"/><line x1="1179.6" y1="520.7" x2="1203.3" y2="238.8" stroke="#d8d8d4" stroke-opacity="0.18" stroke-width="1"/><line x1="1179.6" y1="520.7" x2="1537.6" y2="335.4" stroke="#d8d8d4" stroke-opacity="0.18" stroke-width="1"/><line x1="1081.4" y1="653.6" x2="919.9" y2="535.8" stroke="#d8d8d4" stroke-opacity="0.18" stroke-width="1"/><line x1="1081.4" y1="653.6" x2="760.5" y2="334.9" stroke="#d8d8d4" stroke-opacity="0.18" stroke-width="1"/><line x1="1081.4" y1="653.6" x2="1110.2" y2="284.7" stroke="#d8d8d4" stroke-opacity="0.18" stroke-width="1"/><line x1="1081.4" y1="653.6" x2="1307.2" y2="340.9" stroke="#d8d8d4" stroke-opacity="0.18" stroke-width="1"/><line x1="1032.8" y1="541.8" x2="949.2" y2="420.0" stroke="#d8d8d4" stroke-opacity="0.18" stroke-width="1"/><line x1="1032.8" y1="541.8" x2="950.5" y2="212.7" stroke="#d8d8d4" stroke-opacity="0.18" stroke-width="1"/><line x1="1032.8" y1="541.8" x2="1318.1" y2="245.4" stroke="#d8d8d4" stroke-opacity="0.18" stroke-width="1"/><line x1="919.9" y1="535.8" x2="828.6" y2="490.2" stroke="#d8d8d4" stroke-opacity="0.18" stroke-width="1"/><line x1="919.9" y1="535.8" x2="1020.3" y2="354.7" stroke="#d8d8d4" stroke-opacity="0.18" stroke-width="1"/><line x1="919.9" y1="535.8" x2="1203.3" y2="238.8" stroke="#d8d8d4" stroke-opacity="0.18" stroke-width="1"/><line x1="919.9" y1="535.8" x2="1537.6" y2="335.4" stroke="#d8d8d4" stroke-opacity="0.18" stroke-width="1"/><line x1="828.6" y1="490.2" x2="760.5" y2="334.9" stroke="#d8d8d4" stroke-opacity="0.18" stroke-width="1"/><line x1="828.6" y1="490.2" x2="1110.2" y2="284.7" stroke="#d8d8d4" stroke-opacity="0.18" stroke-width="1"/><line x1="828.6" y1="490.2" x2="1307.2" y2="340.9" stroke="#d8d8d4" stroke-opacity="0.18" stroke-width="1"/><line x1="949.2" y1="420.0" x2="950.5" y2="212.7" stroke="#d8d8d4" stroke-opacity="0.18" stroke-width="1"/><line x1="949.2" y1="420.0" x2="1318.1" y2="245.4" stroke="#d8d8d4" stroke-opacity="0.18" stroke-width="1"/><line x1="760.5" y1="334.9" x2="1020.3" y2="354.7" stroke="#d8d8d4" stroke-opacity="0.18" stroke-width="1"/><line x1="760.5" y1="334.9" x2="1203.3" y2="238.8" stroke="#d8d8d4" stroke-opacity="0.18" stroke-width="1"/><line x1="760.5" y1="334.9" x2="1537.6" y2="335.4" stroke="#d8d8d4" stroke-opacity="0.18" stroke-width="1"/><line x1="1020.3" y1="354.7" x2="1110.2" y2="284.7" stroke="#d8d8d4" stroke-opacity="0.18" stroke-width="1"/><line x1="1020.3" y1="354.7" x2="1307.2" y2="340.9" stroke="#d8d8d4" stroke-opacity="0.18" stroke-width="1"/><line x1="950.5" y1="212.7" x2="1318.1" y2="245.4" stroke="#d8d8d4" stroke-opacity="0.18" stroke-width="1"/><line x1="1110.2" y1="284.7" x2="1203.3" y2="238.8" stroke="#d8d8d4" stroke-opacity="0.18" stroke-width="1"/><line x1="1110.2" y1="284.7" x2="1537.6" y2="335.4" stroke="#d8d8d4" stroke-opacity="0.18" stroke-width="1"/><line x1="1203.3" y1="238.8" x2="1307.2" y2="340.9" stroke="#d8d8d4" stroke-opacity="0.18" stroke-width="1"/><line x1="1307.2" y1="340.9" x2="1537.6" y2="335.4" stroke="#d8d8d4" stroke-opacity="0.18" stroke-width="1"/>
  <circle cx="1150" cy="420" r="180" fill="none" stroke="#d8d8d4" stroke-opacity="0.5" stroke-width="2"/>
  <circle cx="1150" cy="420" r="260" fill="none" stroke="#d8d8d4" stroke-opacity="0.25" stroke-width="1.5"/>
  <text x="110" y="470" font-family="Arial, sans-serif" font-size="110" font-weight="700" letter-spacing="6" fill="#f4f1ea">HYBRIDE</text>
  <text x="114" y="530" font-family="Arial, sans-serif" font-size="26" letter-spacing="5" fill="#d8d8d4">ARTISANAT NUMÉRIQUE</text>
</svg>